<?xml version="1.0" encoding="UTF-8"?> <svg xmlns="http://www.w3.org/2000/svg" width="80" height="80" viewBox="0 0 80 80" fill="none"><path d="M61.6531 10.4233L53.7113 12.7421L52.0068 13.2407L39.8329 16.7886L27.6475 13.2407L25.9315 12.7306L18.0127 10.4233L24.2156 8.61458L36.3547 12.1509L48.5286 8.60304L50.233 8.10444L51.9722 7.59436L61.6531 10.4233Z" fill="#DAE8F0"></path><path d="M14.6885 66.7513H65.3099V75.942H14.6885V66.7513Z" fill="#DAE8F0"></path><path d="M34.4326 39.7444L32.2544 47.1748L39.8306 43.1973L35.5799 39.5258" fill="#23825A"></path><path d="M45.2395 39.7444L47.4177 47.1748L39.8306 43.1973L44.0922 39.5258" fill="#23825A"></path><path d="M75.8038 74.7828H66.4696V67.9106H73.7624C74.4032 67.9106 74.9218 67.3915 74.9218 66.7512V60.5595C74.9218 59.9192 74.4032 59.4001 73.7624 59.4001H59.3149V46.9561C59.3149 43.6896 56.9859 40.8629 53.776 40.2345C53.6549 40.2109 44.5912 38.4415 44.7486 38.4722V35.0577C47.7839 33.3147 49.7225 30.0479 49.7225 26.5021V21.7229H52.0029C52.6437 21.7229 53.1623 21.2038 53.1623 20.5635V14.1042L59.0772 12.3795V19.5778C59.0772 20.2181 59.5957 20.7373 60.2366 20.7373C60.8774 20.7373 61.396 20.2181 61.396 19.5778V11.7034L61.9757 11.5344C62.4705 11.3894 62.8102 10.936 62.8102 10.4208C62.8102 9.90562 62.4694 9.45273 61.9757 9.30837L40.1528 2.94514C39.9399 2.88287 39.7157 2.88287 39.5029 2.94514L17.6913 9.30837C17.1965 9.45273 16.8568 9.9062 16.8568 10.4214C16.8568 10.9365 17.1965 11.39 17.6913 11.5344L26.4934 14.1022V20.5635C26.4934 21.2037 27.0119 21.7229 27.6528 21.7229H29.9422V26.5021C29.9422 30.0486 31.8815 33.3162 34.9116 35.0561V38.4728C34.7956 38.4955 34.1774 38.6163 34.2934 38.5936L25.8944 40.2345C22.6868 40.8629 20.3577 43.6896 20.3577 46.9561V59.4001H6.23635C5.59551 59.4001 5.07693 59.9192 5.07693 60.5595V66.7512C5.07693 67.3915 5.59551 67.9106 6.23635 67.9106H13.5303V74.7828H4.19604C3.55519 74.7828 3.03662 75.3019 3.03662 75.9422C3.03662 76.5825 3.55519 77.1016 4.19604 77.1016H75.8038C76.4447 77.1016 76.9632 76.5825 76.9632 75.9422C76.9632 75.3019 76.4447 74.7828 75.8038 74.7828ZM39.8278 5.26569L57.5135 10.4225C56.7419 10.6474 40.2227 15.462 39.8278 15.5771L22.1557 10.4214L39.8278 5.26569ZM28.8122 14.7811L39.5029 17.8976C39.7157 17.9599 39.9399 17.9599 40.1528 17.8976L50.8435 14.7811V19.404H28.8122V14.7811ZM56.9961 46.9561V59.4001H51.8783V53.8198C51.8783 53.1795 51.3598 52.6604 50.7189 52.6604C50.0781 52.6604 49.5595 53.1795 49.5595 53.8198V59.4001H40.9895V45.1138C46.861 48.1418 47.3019 48.7693 48.1521 48.0714C49.1772 47.2316 48.1352 46.26 46.8905 41.2529L53.3321 42.5103C55.4551 42.9259 56.9961 44.7958 56.9961 46.9561ZM35.3215 40.8346L37.7841 42.9616L34.136 44.8773L35.3215 40.8346ZM37.2305 39.4199V36.0543C38.7423 36.4702 40.8205 36.4997 42.4297 36.0549C42.4297 36.2086 42.4297 39.5919 42.4297 39.4274L39.8309 41.6661L37.2305 39.4199ZM45.5366 44.8796L41.8795 42.9621L44.3512 40.8329L45.5366 44.8796ZM32.261 21.728H47.4037V26.5021C47.4037 31.6904 42.2269 35.4355 37.2398 33.6132C30.5594 31.1383 32.5941 23.6828 32.261 21.728ZM22.6766 46.9561C22.6766 44.7958 24.2175 42.9259 26.3394 42.5104L32.7823 41.2512L31.1412 46.8486C31.011 47.2952 31.1594 47.7764 31.5194 48.0714C31.7311 48.2452 31.9916 48.3341 32.2542 48.3341C32.763 48.3341 32.477 48.3143 38.6707 45.1152V59.4001H30.0984V53.8198C30.0984 53.1795 29.5799 52.6604 28.939 52.6604C28.2982 52.6604 27.7796 53.1795 27.7796 53.8198V59.4001H22.6766V46.9561ZM7.39577 61.7189H72.603V65.5918C65.5672 65.5918 14.4355 65.5918 7.39577 65.5918V61.7189ZM15.8491 74.7828V67.9106H64.1507V74.7828H15.8491Z" fill="#626975"></path><path d="M62.5694 21.1177V26.2904H57.9048V21.1177C57.9048 19.8296 58.949 18.7853 60.2371 18.7853C61.5252 18.7853 62.5694 19.8296 62.5694 21.1177Z" fill="#23825A"></path></svg> 